<?xml version="1.0" encoding="UTF-8"?>
<svg xmlns="http://www.w3.org/2000/svg" xmlns:xlink="http://www.w3.org/1999/xlink" width="390.543pt" height="177.703pt" viewBox="0 0 390.543 177.703" version="1.2">
<defs>
<clipPath id="clip1">
  <path d="M 186 1 L 304 1 L 304 95 L 186 95 Z M 186 1 "/>
</clipPath>
<clipPath id="clip2">
  <path d="M 107 1 L 224 1 L 224 94 L 107 94 Z M 107 1 "/>
</clipPath>
<clipPath id="clip3">
  <path d="M 246 60 L 364 60 L 364 176.703125 L 246 176.703125 Z M 246 60 "/>
</clipPath>
<clipPath id="clip4">
  <path d="M 185 97 L 303 97 L 303 176.703125 L 185 176.703125 Z M 185 97 "/>
</clipPath>
<clipPath id="clip5">
  <path d="M 106 98 L 223 98 L 223 176.703125 L 106 176.703125 Z M 106 98 "/>
</clipPath>
<clipPath id="clip6">
  <path d="M 21 100 L 139 100 L 139 176.703125 L 21 176.703125 Z M 21 100 "/>
</clipPath>
<clipPath id="clip7">
  <path d="M 25 1 L 142 1 L 142 95 L 25 95 Z M 25 1 "/>
</clipPath>
<clipPath id="clip8">
  <path d="M 245 1 L 362 1 L 362 78 L 245 78 Z M 245 1 "/>
</clipPath>
<clipPath id="clip9">
  <path d="M 386 69 L 390.542969 69 L 390.542969 81 L 386 81 Z M 386 69 "/>
</clipPath>
</defs>
<g id="surface1">
<path style=" stroke:none;fill-rule:nonzero;fill:rgb(13.729858%,12.159729%,12.548828%);fill-opacity:1;" d="M 293.050781 75.71875 L 292.90625 74.472656 C 293.195312 74.550781 293.449219 74.589844 293.664062 74.589844 C 293.960938 74.589844 294.195312 74.539062 294.375 74.441406 C 294.550781 74.34375 294.695312 74.207031 294.808594 74.027344 C 294.894531 73.898438 295.027344 73.566406 295.214844 73.039062 C 295.238281 72.964844 295.28125 72.859375 295.332031 72.714844 L 292.359375 64.863281 L 293.792969 64.863281 L 295.421875 69.398438 C 295.632812 69.976562 295.824219 70.582031 295.992188 71.21875 C 296.144531 70.605469 296.324219 70.011719 296.535156 69.429688 L 298.210938 64.863281 L 299.539062 64.863281 L 296.558594 72.832031 C 296.238281 73.695312 295.992188 74.285156 295.8125 74.613281 C 295.578125 75.050781 295.308594 75.371094 295.003906 75.574219 C 294.695312 75.777344 294.332031 75.882812 293.910156 75.882812 C 293.652344 75.882812 293.367188 75.828125 293.050781 75.71875 "/>
<path style=" stroke:none;fill-rule:nonzero;fill:rgb(13.729858%,12.159729%,12.548828%);fill-opacity:1;" d="M 300.472656 74.644531 L 300.472656 73.5 L 301.472656 73.5 L 301.472656 74.644531 Z M 300.472656 81.613281 L 300.472656 75.734375 L 301.472656 75.734375 L 301.472656 81.613281 L 300.472656 81.613281 "/>
<path style=" stroke:none;fill-rule:nonzero;fill:rgb(13.729858%,12.159729%,12.548828%);fill-opacity:1;" d="M 233.414062 39.90625 L 233.265625 38.660156 C 233.558594 38.738281 233.808594 38.777344 234.027344 38.777344 C 234.320312 38.777344 234.558594 38.730469 234.734375 38.628906 C 234.914062 38.53125 235.058594 38.394531 235.171875 38.21875 C 235.257812 38.085938 235.390625 37.757812 235.578125 37.230469 C 235.601562 37.15625 235.640625 37.050781 235.695312 36.90625 L 232.722656 29.054688 L 234.152344 29.054688 L 235.785156 33.589844 C 235.996094 34.167969 236.1875 34.773438 236.351562 35.40625 C 236.503906 34.796875 236.6875 34.203125 236.898438 33.621094 L 238.574219 29.054688 L 239.902344 29.054688 L 236.921875 37.023438 C 236.601562 37.886719 236.351562 38.476562 236.175781 38.800781 C 235.9375 39.242188 235.667969 39.558594 235.363281 39.765625 C 235.058594 39.96875 234.695312 40.070312 234.269531 40.070312 C 234.015625 40.070312 233.730469 40.015625 233.414062 39.90625 "/>
<path style=" stroke:none;fill-rule:nonzero;fill:rgb(13.729858%,12.159729%,12.548828%);fill-opacity:1;" d="M 240.828125 37.308594 L 240.828125 36.152344 L 241.824219 36.152344 L 241.824219 37.308594 Z M 239.566406 46.546875 L 239.753906 45.699219 C 239.953125 45.753906 240.109375 45.777344 240.222656 45.777344 C 240.425781 45.777344 240.578125 45.710938 240.675781 45.578125 C 240.777344 45.441406 240.828125 45.101562 240.828125 44.566406 L 240.828125 38.390625 L 241.824219 38.390625 L 241.824219 44.589844 C 241.824219 45.3125 241.726562 45.8125 241.542969 46.097656 C 241.300781 46.46875 240.902344 46.652344 240.34375 46.652344 C 240.074219 46.652344 239.816406 46.617188 239.566406 46.546875 "/>
<path style=" stroke:none;fill-rule:nonzero;fill:rgb(13.729858%,12.159729%,12.548828%);fill-opacity:1;" d="M 154.238281 39.222656 L 154.089844 37.976562 C 154.382812 38.054688 154.636719 38.09375 154.851562 38.09375 C 155.144531 38.09375 155.382812 38.042969 155.558594 37.945312 C 155.738281 37.847656 155.882812 37.710938 155.996094 37.53125 C 156.082031 37.402344 156.214844 37.070312 156.402344 36.542969 C 156.425781 36.46875 156.46875 36.363281 156.519531 36.21875 L 153.546875 28.367188 L 154.976562 28.367188 L 156.609375 32.90625 C 156.820312 33.480469 157.011719 34.085938 157.175781 34.722656 C 157.332031 34.113281 157.511719 33.515625 157.722656 32.933594 L 159.398438 28.367188 L 160.726562 28.367188 L 157.746094 36.339844 C 157.425781 37.199219 157.175781 37.792969 157 38.117188 C 156.765625 38.554688 156.496094 38.875 156.191406 39.078125 C 155.882812 39.28125 155.519531 39.386719 155.097656 39.386719 C 154.839844 39.386719 154.554688 39.332031 154.238281 39.222656 "/>
<path style=" stroke:none;fill-rule:nonzero;fill:rgb(13.729858%,12.159729%,12.548828%);fill-opacity:1;" d="M 153.210938 107.429688 L 153.0625 106.183594 C 153.355469 106.261719 153.605469 106.300781 153.824219 106.300781 C 154.117188 106.300781 154.355469 106.25 154.53125 106.152344 C 154.710938 106.054688 154.855469 105.917969 154.96875 105.738281 C 155.054688 105.609375 155.1875 105.277344 155.375 104.75 C 155.398438 104.675781 155.4375 104.570312 155.492188 104.425781 L 152.519531 96.574219 L 153.949219 96.574219 L 155.582031 101.113281 C 155.792969 101.6875 155.984375 102.292969 156.148438 102.929688 C 156.300781 102.316406 156.484375 101.722656 156.695312 101.140625 L 158.371094 96.574219 L 159.699219 96.574219 L 156.71875 104.546875 C 156.398438 105.40625 156.148438 106 155.972656 106.324219 C 155.734375 106.761719 155.464844 107.082031 155.160156 107.285156 C 154.855469 107.488281 154.492188 107.59375 154.066406 107.59375 C 153.8125 107.59375 153.527344 107.539062 153.210938 107.429688 "/>
<path style=" stroke:none;fill-rule:nonzero;fill:rgb(13.729858%,12.159729%,12.548828%);fill-opacity:1;" d="M 158.917969 43.582031 L 158.917969 35.464844 L 159.917969 35.464844 L 159.917969 40.09375 L 162.273438 37.703125 L 163.5625 37.703125 L 161.316406 39.882812 L 163.792969 43.582031 L 162.5625 43.582031 L 160.621094 40.574219 L 159.917969 41.25 L 159.917969 43.582031 L 158.917969 43.582031 "/>
<path style=" stroke:none;fill-rule:nonzero;fill:rgb(13.729858%,12.159729%,12.548828%);fill-opacity:1;" d="M 157.890625 111.789062 L 157.890625 103.671875 L 158.890625 103.671875 L 158.890625 108.300781 L 161.246094 105.910156 L 162.535156 105.910156 L 160.289062 108.089844 L 162.765625 111.789062 L 161.535156 111.789062 L 159.589844 108.78125 L 158.890625 109.457031 L 158.890625 111.789062 L 157.890625 111.789062 "/>
<path style=" stroke:none;fill-rule:nonzero;fill:rgb(13.729858%,12.159729%,12.548828%);fill-opacity:1;" d="M 232.472656 108.25 L 232.324219 107.003906 C 232.617188 107.082031 232.867188 107.121094 233.085938 107.121094 C 233.378906 107.121094 233.617188 107.070312 233.792969 106.972656 C 233.972656 106.875 234.113281 106.738281 234.226562 106.558594 C 234.3125 106.429688 234.445312 106.097656 234.632812 105.574219 C 234.660156 105.496094 234.699219 105.390625 234.75 105.246094 L 231.78125 97.394531 L 233.210938 97.394531 L 234.84375 101.933594 C 235.050781 102.507812 235.242188 103.113281 235.410156 103.75 C 235.5625 103.140625 235.746094 102.546875 235.957031 101.964844 L 237.632812 97.394531 L 238.957031 97.394531 L 235.980469 105.367188 C 235.660156 106.226562 235.410156 106.820312 235.234375 107.144531 C 234.996094 107.582031 234.726562 107.902344 234.421875 108.105469 C 234.113281 108.3125 233.75 108.414062 233.328125 108.414062 C 233.070312 108.414062 232.785156 108.359375 232.472656 108.25 "/>
<path style=" stroke:none;fill-rule:nonzero;fill:rgb(13.729858%,12.159729%,12.548828%);fill-opacity:1;" d="M 239.882812 105.652344 L 239.882812 104.496094 L 240.878906 104.496094 L 240.878906 105.652344 Z M 238.621094 114.890625 L 238.808594 114.042969 C 239.007812 114.09375 239.167969 114.121094 239.28125 114.121094 C 239.484375 114.121094 239.636719 114.050781 239.734375 113.917969 C 239.832031 113.785156 239.882812 113.445312 239.882812 112.90625 L 239.882812 106.730469 L 240.878906 106.730469 L 240.878906 112.929688 C 240.878906 113.652344 240.785156 114.15625 240.597656 114.441406 C 240.359375 114.808594 239.960938 114.996094 239.402344 114.996094 C 239.132812 114.996094 238.871094 114.960938 238.621094 114.890625 "/>
<path style="fill:none;stroke-width:20.0013;stroke-linecap:butt;stroke-linejoin:miter;stroke:rgb(13.729858%,12.159729%,12.548828%);stroke-opacity:1;stroke-miterlimit:22.9256;" d="M 4540.041544 1939.600999 C 4693.311738 1939.600999 4817.615044 1815.297693 4817.615044 1662.027499 C 4817.615044 1508.757304 4693.311738 1384.453998 4540.041544 1384.453998 C 4386.771349 1384.453998 4262.468043 1508.757304 4262.468043 1662.027499 C 4262.468043 1815.297693 4386.771349 1939.600999 4540.041544 1939.600999 Z M 4540.041544 1939.600999 " transform="matrix(0.062976,0,0,-0.062976,18.559,176.703)"/>
<g clip-path="url(#clip1)" clip-rule="nonzero">
<path style="fill:none;stroke-width:20.0013;stroke-linecap:butt;stroke-linejoin:miter;stroke:rgb(13.729858%,12.159729%,12.548828%);stroke-opacity:1;stroke-miterlimit:22.9256;" d="M 3593.066208 2508.270016 C 3746.336402 2508.270016 3870.639708 2383.96671 3870.639708 2230.696515 C 3870.639708 2077.426321 3746.336402 1953.123015 3593.066208 1953.123015 C 3439.733986 1953.123015 3315.492708 2077.426321 3315.492708 2230.696515 C 3315.492708 2383.96671 3439.733986 2508.270016 3593.066208 2508.270016 Z M 3593.066208 2508.270016 " transform="matrix(0.062976,0,0,-0.062976,18.559,176.703)"/>
</g>
<g clip-path="url(#clip2)" clip-rule="nonzero">
<path style="fill:none;stroke-width:20.0013;stroke-linecap:butt;stroke-linejoin:miter;stroke:rgb(13.729858%,12.159729%,12.548828%);stroke-opacity:1;stroke-miterlimit:22.9256;" d="M 2335.828828 2519.124845 C 2489.099022 2519.124845 2613.402328 2394.821539 2613.402328 2241.551345 C 2613.402328 2088.281151 2489.099022 1963.977845 2335.828828 1963.977845 C 2182.558633 1963.977845 2058.255327 2088.281151 2058.255327 2241.551345 C 2058.255327 2394.821539 2182.558633 2519.124845 2335.828828 2519.124845 Z M 2335.828828 2519.124845 " transform="matrix(0.062976,0,0,-0.062976,18.559,176.703)"/>
</g>
<path style="fill:none;stroke-width:20.0013;stroke-linecap:butt;stroke-linejoin:miter;stroke:rgb(13.729858%,12.159729%,12.548828%);stroke-opacity:1;stroke-miterlimit:22.9256;" d="M 2319.453542 1436.06096 C 2472.785764 1436.06096 2597.027042 1311.757654 2597.027042 1158.48746 C 2597.027042 1005.217265 2472.785764 880.913959 2319.453542 880.913959 C 2166.183348 880.913959 2041.942069 1005.217265 2041.942069 1158.48746 C 2041.942069 1311.757654 2166.183348 1436.06096 2319.453542 1436.06096 Z M 2319.453542 1436.06096 " transform="matrix(0.062976,0,0,-0.062976,18.559,176.703)"/>
<path style="fill:none;stroke-width:20.0013;stroke-linecap:butt;stroke-linejoin:miter;stroke:rgb(13.729858%,12.159729%,12.548828%);stroke-opacity:1;stroke-miterlimit:22.9256;" d="M 3578.055529 1423.035164 C 3731.325723 1423.035164 3855.629029 1298.731858 3855.629029 1145.461664 C 3855.629029 992.19147 3731.325723 867.888164 3578.055529 867.888164 C 3424.785335 867.888164 3300.482029 992.19147 3300.482029 1145.461664 C 3300.482029 1298.731858 3424.785335 1423.035164 3578.055529 1423.035164 Z M 3578.055529 1423.035164 " transform="matrix(0.062976,0,0,-0.062976,18.559,176.703)"/>
<g clip-path="url(#clip3)" clip-rule="nonzero">
<path style="fill:none;stroke-width:20.0013;stroke-linecap:butt;stroke-linejoin:miter;stroke:rgb(13.729858%,12.159729%,12.548828%);stroke-opacity:1;stroke-dasharray:20.0013,100.006;stroke-miterlimit:22.9256;" d="M 4550.896373 1194.029273 C 4704.166567 1194.029273 4828.469873 1069.725967 4828.469873 916.455773 C 4828.469873 763.123551 4704.166567 638.882273 4550.896373 638.882273 C 4397.626179 638.882273 4273.322873 763.123551 4273.322873 916.455773 C 4273.322873 1069.725967 4397.626179 1194.029273 4550.896373 1194.029273 Z M 4550.896373 1194.029273 " transform="matrix(0.062976,0,0,-0.062976,18.559,176.703)"/>
</g>
<g clip-path="url(#clip4)" clip-rule="nonzero">
<path style="fill:none;stroke-width:20.0013;stroke-linecap:butt;stroke-linejoin:miter;stroke:rgb(13.729858%,12.159729%,12.548828%);stroke-opacity:1;stroke-dasharray:20.0013,100.006;stroke-miterlimit:22.9256;" d="M 3582.149351 611.652157 C 3735.419545 611.652157 3859.722851 487.348851 3859.722851 334.078657 C 3859.722851 180.808463 3735.419545 56.505157 3582.149351 56.505157 C 3428.879156 56.505157 3304.57585 180.808463 3304.57585 334.078657 C 3304.57585 487.348851 3428.879156 611.652157 3582.149351 611.652157 Z M 3582.149351 611.652157 " transform="matrix(0.062976,0,0,-0.062976,18.559,176.703)"/>
</g>
<g clip-path="url(#clip5)" clip-rule="nonzero">
<path style="fill:none;stroke-width:20.0013;stroke-linecap:butt;stroke-linejoin:miter;stroke:rgb(13.729858%,12.159729%,12.548828%);stroke-opacity:1;stroke-dasharray:20.0013,100.006;stroke-miterlimit:22.9256;" d="M 2319.453542 600.7353 C 2472.785764 600.7353 2597.027042 476.494022 2597.027042 323.1618 C 2597.027042 169.891606 2472.785764 45.650327 2319.453542 45.650327 C 2166.183348 45.650327 2041.942069 169.891606 2041.942069 323.1618 C 2041.942069 476.494022 2166.183348 600.7353 2319.453542 600.7353 Z M 2319.453542 600.7353 " transform="matrix(0.062976,0,0,-0.062976,18.559,176.703)"/>
</g>
<g clip-path="url(#clip6)" clip-rule="nonzero">
<path style="fill:none;stroke-width:20.0013;stroke-linecap:butt;stroke-linejoin:miter;stroke:rgb(13.729858%,12.159729%,12.548828%);stroke-opacity:1;stroke-dasharray:20.0013,100.006;stroke-miterlimit:22.9256;" d="M 980.649871 568.108784 C 1133.920065 568.108784 1258.223371 443.805477 1258.223371 290.535283 C 1258.223371 137.265089 1133.920065 12.961783 980.649871 12.961783 C 827.379676 12.961783 703.07637 137.265089 703.07637 290.535283 C 703.07637 443.805477 827.379676 568.108784 980.649871 568.108784 Z M 980.649871 568.108784 " transform="matrix(0.062976,0,0,-0.062976,18.559,176.703)"/>
</g>
<path style="fill:none;stroke-width:20.0013;stroke-linecap:butt;stroke-linejoin:miter;stroke:rgb(13.729858%,12.159729%,12.548828%);stroke-opacity:1;stroke-dasharray:20.0013,100.006;stroke-miterlimit:22.9256;" d="M 1035.048074 1427.997372 C 1188.318268 1427.997372 1312.621574 1303.756094 1312.621574 1150.423872 C 1312.621574 997.153678 1188.318268 872.912399 1035.048074 872.912399 C 881.77788 872.912399 757.474574 997.153678 757.474574 1150.423872 C 757.474574 1303.756094 881.77788 1427.997372 1035.048074 1427.997372 Z M 1035.048074 1427.997372 " transform="matrix(0.062976,0,0,-0.062976,18.559,176.703)"/>
<g clip-path="url(#clip7)" clip-rule="nonzero">
<path style="fill:none;stroke-width:20.0013;stroke-linecap:butt;stroke-linejoin:miter;stroke:rgb(13.729858%,12.159729%,12.548828%);stroke-opacity:1;stroke-dasharray:20.0013,100.006;stroke-miterlimit:22.9256;" d="M 1029.589645 2511.061257 C 1182.859839 2511.061257 1307.163145 2386.819979 1307.163145 2233.549785 C 1307.163145 2080.217563 1182.859839 1955.976285 1029.589645 1955.976285 C 876.319451 1955.976285 752.016145 2080.217563 752.016145 2233.549785 C 752.016145 2386.819979 876.319451 2511.061257 1029.589645 2511.061257 Z M 1029.589645 2511.061257 " transform="matrix(0.062976,0,0,-0.062976,18.559,176.703)"/>
</g>
<g clip-path="url(#clip8)" clip-rule="nonzero">
<path style="fill:none;stroke-width:20.0013;stroke-linecap:butt;stroke-linejoin:miter;stroke:rgb(13.729858%,12.159729%,12.548828%);stroke-opacity:1;stroke-dasharray:20.0013,100.006;stroke-miterlimit:22.9256;" d="M 4523.728285 2772.321499 C 4676.99848 2772.321499 4801.239758 2648.018193 4801.239758 2494.747999 C 4801.239758 2341.477805 4676.99848 2217.174499 4523.728285 2217.174499 C 4370.458091 2217.174499 4246.154785 2341.477805 4246.154785 2494.747999 C 4246.154785 2648.018193 4370.458091 2772.321499 4523.728285 2772.321499 Z M 4523.728285 2772.321499 " transform="matrix(0.062976,0,0,-0.062976,18.559,176.703)"/>
</g>
<path style=" stroke:none;fill-rule:nonzero;fill:rgb(13.729858%,12.159729%,12.548828%);fill-opacity:1;" d="M 276.515625 41.347656 L 276.515625 41.082031 C 277.347656 41.082031 278.027344 41.222656 278.554688 41.507812 C 279.082031 41.789062 279.503906 42.246094 279.828125 42.871094 C 280.148438 43.5 280.3125 44.1875 280.3125 44.933594 C 280.3125 45.570312 280.1875 46.148438 279.933594 46.675781 C 279.683594 47.203125 279.339844 47.601562 278.90625 47.867188 C 278.46875 48.136719 278.054688 48.269531 277.660156 48.269531 C 277.226562 48.269531 276.859375 48.148438 276.554688 47.898438 C 276.25 47.65625 275.976562 47.273438 275.738281 46.757812 C 275.464844 47.277344 275.160156 47.660156 274.816406 47.90625 C 274.476562 48.148438 274.09375 48.269531 273.667969 48.269531 C 273.300781 48.269531 272.910156 48.140625 272.5 47.875 C 272.089844 47.613281 271.757812 47.203125 271.507812 46.65625 C 271.257812 46.109375 271.128906 45.515625 271.128906 44.875 C 271.128906 44.183594 271.269531 43.550781 271.550781 42.976562 C 271.765625 42.535156 272.042969 42.167969 272.382812 41.878906 C 272.71875 41.585938 273.078125 41.382812 273.453125 41.261719 C 273.835938 41.140625 274.316406 41.082031 274.898438 41.082031 L 274.898438 41.347656 C 274.21875 41.417969 273.652344 41.742188 273.207031 42.316406 C 272.761719 42.898438 272.539062 43.746094 272.539062 44.867188 C 272.539062 45.976562 272.707031 46.785156 273.050781 47.304688 C 273.253906 47.613281 273.546875 47.769531 273.921875 47.769531 C 274.230469 47.769531 274.523438 47.640625 274.800781 47.382812 C 275.078125 47.128906 275.316406 46.664062 275.515625 45.996094 C 275.300781 45.421875 275.15625 44.992188 275.089844 44.714844 C 275.023438 44.429688 274.992188 44.164062 274.992188 43.90625 C 274.992188 43.429688 275.101562 43.019531 275.320312 42.675781 C 275.429688 42.503906 275.558594 42.417969 275.707031 42.417969 C 275.859375 42.417969 275.988281 42.503906 276.097656 42.675781 C 276.308594 43 276.414062 43.394531 276.414062 43.863281 C 276.414062 44.433594 276.253906 45.148438 275.9375 45.996094 C 276.128906 46.671875 276.351562 47.125 276.613281 47.359375 C 276.867188 47.59375 277.160156 47.707031 277.484375 47.707031 C 277.867188 47.707031 278.175781 47.558594 278.414062 47.257812 C 278.734375 46.855469 278.894531 46.097656 278.894531 44.992188 C 278.894531 43.652344 278.597656 42.65625 278 42.019531 C 277.640625 41.628906 277.148438 41.40625 276.515625 41.347656 "/>
<path style=" stroke:none;fill-rule:nonzero;fill:rgb(13.729858%,12.159729%,12.548828%);fill-opacity:1;" d="M 261.4375 77.335938 L 261.4375 77.070312 C 262.269531 77.070312 262.949219 77.210938 263.476562 77.496094 C 264 77.777344 264.425781 78.234375 264.746094 78.859375 C 265.070312 79.488281 265.230469 80.175781 265.230469 80.925781 C 265.230469 81.558594 265.105469 82.136719 264.851562 82.664062 C 264.605469 83.191406 264.261719 83.589844 263.824219 83.855469 C 263.390625 84.125 262.972656 84.257812 262.582031 84.257812 C 262.148438 84.257812 261.777344 84.136719 261.472656 83.890625 C 261.167969 83.644531 260.894531 83.261719 260.65625 82.746094 C 260.382812 83.265625 260.078125 83.648438 259.738281 83.894531 C 259.394531 84.136719 259.011719 84.257812 258.585938 84.257812 C 258.21875 84.257812 257.828125 84.128906 257.417969 83.863281 C 257.007812 83.601562 256.675781 83.195312 256.425781 82.648438 C 256.175781 82.097656 256.046875 81.503906 256.046875 80.863281 C 256.046875 80.171875 256.191406 79.539062 256.46875 78.964844 C 256.6875 78.523438 256.960938 78.15625 257.300781 77.867188 C 257.636719 77.578125 257.996094 77.371094 258.375 77.25 C 258.753906 77.128906 259.234375 77.070312 259.820312 77.070312 L 259.820312 77.335938 C 259.136719 77.40625 258.574219 77.730469 258.125 78.304688 C 257.679688 78.886719 257.460938 79.734375 257.460938 80.855469 C 257.460938 81.964844 257.628906 82.777344 257.96875 83.292969 C 258.175781 83.601562 258.464844 83.757812 258.839844 83.757812 C 259.148438 83.757812 259.445312 83.628906 259.722656 83.371094 C 260 83.117188 260.234375 82.65625 260.433594 81.984375 C 260.21875 81.410156 260.078125 80.980469 260.007812 80.703125 C 259.941406 80.421875 259.910156 80.152344 259.910156 79.894531 C 259.910156 79.421875 260.019531 79.007812 260.242188 78.664062 C 260.347656 78.492188 260.476562 78.40625 260.625 78.40625 C 260.777344 78.40625 260.90625 78.492188 261.015625 78.664062 C 261.226562 78.988281 261.335938 79.386719 261.335938 79.851562 C 261.335938 80.421875 261.175781 81.136719 260.855469 81.984375 C 261.046875 82.660156 261.269531 83.113281 261.53125 83.347656 C 261.785156 83.582031 262.078125 83.699219 262.402344 83.699219 C 262.785156 83.699219 263.097656 83.550781 263.335938 83.246094 C 263.652344 82.84375 263.8125 82.085938 263.8125 80.980469 C 263.8125 79.640625 263.515625 78.648438 262.921875 78.007812 C 262.558594 77.617188 262.066406 77.394531 261.4375 77.335938 "/>
<path style=" stroke:none;fill-rule:nonzero;fill:rgb(13.729858%,12.159729%,12.548828%);fill-opacity:1;" d="M 198.671875 41.347656 L 198.671875 41.082031 C 199.503906 41.082031 200.183594 41.222656 200.710938 41.507812 C 201.238281 41.789062 201.660156 42.246094 201.980469 42.875 C 202.304688 43.5 202.464844 44.1875 202.464844 44.9375 C 202.464844 45.570312 202.339844 46.152344 202.089844 46.675781 C 201.839844 47.203125 201.496094 47.601562 201.058594 47.867188 C 200.625 48.136719 200.207031 48.273438 199.816406 48.273438 C 199.382812 48.273438 199.015625 48.148438 198.710938 47.902344 C 198.40625 47.65625 198.128906 47.273438 197.890625 46.757812 C 197.621094 47.277344 197.316406 47.660156 196.972656 47.90625 C 196.628906 48.148438 196.246094 48.273438 195.824219 48.273438 C 195.457031 48.273438 195.066406 48.140625 194.65625 47.875 C 194.242188 47.613281 193.910156 47.207031 193.660156 46.660156 C 193.410156 46.109375 193.285156 45.515625 193.285156 44.875 C 193.285156 44.183594 193.425781 43.550781 193.703125 42.980469 C 193.921875 42.535156 194.199219 42.171875 194.535156 41.878906 C 194.875 41.589844 195.230469 41.382812 195.609375 41.261719 C 195.988281 41.144531 196.46875 41.082031 197.054688 41.082031 L 197.054688 41.347656 C 196.371094 41.417969 195.808594 41.742188 195.363281 42.320312 C 194.917969 42.898438 194.695312 43.746094 194.695312 44.867188 C 194.695312 45.976562 194.863281 46.789062 195.203125 47.304688 C 195.410156 47.613281 195.699219 47.769531 196.074219 47.769531 C 196.386719 47.769531 196.679688 47.640625 196.957031 47.386719 C 197.234375 47.128906 197.46875 46.667969 197.667969 45.996094 C 197.453125 45.421875 197.3125 44.996094 197.242188 44.714844 C 197.179688 44.433594 197.144531 44.164062 197.144531 43.910156 C 197.144531 43.433594 197.257812 43.023438 197.476562 42.675781 C 197.585938 42.503906 197.710938 42.417969 197.859375 42.417969 C 198.011719 42.417969 198.144531 42.503906 198.25 42.675781 C 198.464844 43 198.570312 43.398438 198.570312 43.867188 C 198.570312 44.433594 198.410156 45.148438 198.089844 45.996094 C 198.28125 46.671875 198.507812 47.125 198.765625 47.359375 C 199.023438 47.59375 199.316406 47.710938 199.640625 47.710938 C 200.023438 47.710938 200.332031 47.5625 200.570312 47.257812 C 200.890625 46.855469 201.046875 46.101562 201.046875 44.996094 C 201.046875 43.652344 200.75 42.660156 200.15625 42.019531 C 199.796875 41.632812 199.300781 41.40625 198.671875 41.347656 "/>
<path style=" stroke:none;fill-rule:nonzero;fill:rgb(13.729858%,12.159729%,12.548828%);fill-opacity:1;" d="M 198.328125 89.332031 L 198.328125 89.066406 C 199.160156 89.066406 199.839844 89.207031 200.367188 89.492188 C 200.894531 89.773438 201.316406 90.230469 201.640625 90.859375 C 201.960938 91.484375 202.125 92.171875 202.125 92.921875 C 202.125 93.554688 201.996094 94.136719 201.746094 94.664062 C 201.496094 95.1875 201.152344 95.585938 200.71875 95.851562 C 200.28125 96.121094 199.867188 96.257812 199.472656 96.257812 C 199.039062 96.257812 198.671875 96.132812 198.367188 95.886719 C 198.0625 95.640625 197.789062 95.257812 197.546875 94.742188 C 197.277344 95.265625 196.972656 95.648438 196.628906 95.890625 C 196.285156 96.132812 195.902344 96.257812 195.480469 96.257812 C 195.113281 96.257812 194.722656 96.125 194.3125 95.859375 C 193.902344 95.597656 193.570312 95.191406 193.320312 94.644531 C 193.066406 94.09375 192.941406 93.5 192.941406 92.859375 C 192.941406 92.167969 193.082031 91.535156 193.363281 90.964844 C 193.578125 90.519531 193.855469 90.15625 194.195312 89.867188 C 194.53125 89.574219 194.886719 89.371094 195.265625 89.25 C 195.644531 89.128906 196.128906 89.066406 196.710938 89.066406 L 196.710938 89.332031 C 196.03125 89.402344 195.464844 89.726562 195.019531 90.304688 C 194.574219 90.882812 194.351562 91.730469 194.351562 92.855469 C 194.351562 93.960938 194.519531 94.773438 194.859375 95.289062 C 195.066406 95.597656 195.355469 95.753906 195.734375 95.753906 C 196.042969 95.753906 196.335938 95.628906 196.613281 95.371094 C 196.890625 95.113281 197.128906 94.652344 197.328125 93.980469 C 197.109375 93.40625 196.96875 92.980469 196.902344 92.699219 C 196.835938 92.417969 196.800781 92.152344 196.800781 91.894531 C 196.800781 91.417969 196.914062 91.007812 197.132812 90.660156 C 197.242188 90.492188 197.371094 90.40625 197.519531 90.40625 C 197.667969 90.40625 197.800781 90.492188 197.910156 90.660156 C 198.121094 90.988281 198.226562 91.382812 198.226562 91.851562 C 198.226562 92.417969 198.066406 93.132812 197.746094 93.980469 C 197.9375 94.65625 198.164062 95.109375 198.421875 95.34375 C 198.679688 95.578125 198.972656 95.695312 199.296875 95.695312 C 199.679688 95.695312 199.988281 95.546875 200.226562 95.242188 C 200.546875 94.839844 200.707031 94.085938 200.707031 92.980469 C 200.707031 91.636719 200.40625 90.644531 199.8125 90.003906 C 199.453125 89.617188 198.960938 89.390625 198.328125 89.332031 "/>
<path style=" stroke:none;fill-rule:nonzero;fill:rgb(13.729858%,12.159729%,12.548828%);fill-opacity:1;" d="M 282.9375 45.195312 L 282.9375 44.039062 L 283.933594 44.039062 L 283.933594 45.195312 Z M 281.675781 54.433594 L 281.859375 53.589844 C 282.0625 53.640625 282.21875 53.667969 282.332031 53.667969 C 282.535156 53.667969 282.6875 53.597656 282.785156 53.464844 C 282.886719 53.328125 282.9375 52.992188 282.9375 52.453125 L 282.9375 46.277344 L 283.933594 46.277344 L 283.933594 52.476562 C 283.933594 53.199219 283.835938 53.703125 283.648438 53.988281 C 283.410156 54.355469 283.011719 54.539062 282.453125 54.539062 C 282.183594 54.539062 281.921875 54.503906 281.675781 54.433594 "/>
<path style=" stroke:none;fill-rule:nonzero;fill:rgb(13.729858%,12.159729%,12.548828%);fill-opacity:1;" d="M 285.464844 45.1875 L 285.464844 44.039062 L 286.460938 44.039062 L 286.460938 45.1875 Z M 285.464844 52.152344 L 285.464844 46.277344 L 286.460938 46.277344 L 286.460938 52.152344 L 285.464844 52.152344 "/>
<path style=" stroke:none;fill-rule:nonzero;fill:rgb(13.729858%,12.159729%,12.548828%);fill-opacity:1;" d="M 267.855469 81.183594 L 267.855469 80.027344 L 268.851562 80.027344 L 268.851562 81.183594 Z M 266.59375 90.421875 L 266.78125 89.578125 C 266.980469 89.628906 267.136719 89.65625 267.25 89.65625 C 267.453125 89.65625 267.605469 89.585938 267.703125 89.453125 C 267.804688 89.316406 267.855469 88.980469 267.855469 88.441406 L 267.855469 82.265625 L 268.851562 82.265625 L 268.851562 88.464844 C 268.851562 89.1875 268.757812 89.691406 268.570312 89.976562 C 268.328125 90.34375 267.929688 90.527344 267.375 90.527344 C 267.101562 90.527344 266.84375 90.492188 266.59375 90.421875 "/>
<path style=" stroke:none;fill-rule:nonzero;fill:rgb(13.729858%,12.159729%,12.548828%);fill-opacity:1;" d="M 270.382812 81.175781 L 270.382812 80.027344 L 271.378906 80.027344 L 271.378906 81.175781 Z M 270.382812 88.144531 L 270.382812 82.265625 L 271.378906 82.265625 L 271.378906 88.144531 L 270.382812 88.144531 "/>
<path style=" stroke:none;fill-rule:nonzero;fill:rgb(13.729858%,12.159729%,12.548828%);fill-opacity:1;" d="M 205.097656 52.15625 L 205.097656 44.039062 L 206.097656 44.039062 L 206.097656 48.667969 L 208.457031 46.277344 L 209.742188 46.277344 L 207.496094 48.457031 L 209.972656 52.15625 L 208.742188 52.15625 L 206.800781 49.148438 L 206.097656 49.824219 L 206.097656 52.15625 L 205.097656 52.15625 "/>
<path style=" stroke:none;fill-rule:nonzero;fill:rgb(13.729858%,12.159729%,12.548828%);fill-opacity:1;" d="M 210.757812 45.195312 L 210.757812 44.039062 L 211.753906 44.039062 L 211.753906 45.195312 Z M 209.496094 54.4375 L 209.683594 53.589844 C 209.882812 53.640625 210.039062 53.667969 210.152344 53.667969 C 210.359375 53.667969 210.507812 53.597656 210.609375 53.464844 C 210.707031 53.332031 210.757812 52.992188 210.757812 52.453125 L 210.757812 46.277344 L 211.753906 46.277344 L 211.753906 52.476562 C 211.753906 53.199219 211.660156 53.703125 211.472656 53.988281 C 211.234375 54.355469 210.832031 54.542969 210.277344 54.542969 C 210.007812 54.542969 209.746094 54.503906 209.496094 54.4375 "/>
<path style=" stroke:none;fill-rule:nonzero;fill:rgb(13.729858%,12.159729%,12.548828%);fill-opacity:1;" d="M 204.757812 100.140625 L 204.757812 92.027344 L 205.753906 92.027344 L 205.753906 96.652344 L 208.113281 94.261719 L 209.402344 94.261719 L 207.15625 96.441406 L 209.628906 100.140625 L 208.398438 100.140625 L 206.457031 97.132812 L 205.753906 97.8125 L 205.753906 100.140625 L 204.757812 100.140625 "/>
<path style=" stroke:none;fill-rule:nonzero;fill:rgb(13.729858%,12.159729%,12.548828%);fill-opacity:1;" d="M 210.414062 93.183594 L 210.414062 92.027344 L 211.410156 92.027344 L 211.410156 93.183594 Z M 209.152344 102.421875 L 209.339844 101.574219 C 209.539062 101.625 209.699219 101.652344 209.8125 101.652344 C 210.015625 101.652344 210.164062 101.582031 210.265625 101.449219 C 210.363281 101.316406 210.414062 100.976562 210.414062 100.4375 L 210.414062 94.261719 L 211.410156 94.261719 L 211.410156 100.460938 C 211.410156 101.183594 211.316406 101.6875 211.128906 101.972656 C 210.890625 102.339844 210.492188 102.527344 209.933594 102.527344 C 209.664062 102.527344 209.402344 102.492188 209.152344 102.421875 "/>
<path style="fill:none;stroke-width:20.0013;stroke-linecap:butt;stroke-linejoin:miter;stroke:rgb(13.729858%,12.159729%,12.548828%);stroke-opacity:1;stroke-miterlimit:22.9256;" d="M 3843.409593 2097.461235 L 4212.72191 1846.683657 " transform="matrix(0.062976,0,0,-0.062976,18.559,176.703)"/>
<path style=" stroke:none;fill-rule:evenodd;fill:rgb(13.729858%,12.159729%,12.548828%);fill-opacity:1;" d="M 285.273438 57.40625 L 288.363281 63.464844 L 281.589844 62.828125 Z M 285.273438 57.40625 "/>
<path style="fill:none;stroke-width:20.0013;stroke-linecap:butt;stroke-linejoin:miter;stroke:rgb(13.729858%,12.159729%,12.548828%);stroke-opacity:1;stroke-miterlimit:22.9256;" d="M 3837.951164 1264.740735 L 4235.237928 1479.356223 " transform="matrix(0.062976,0,0,-0.062976,18.559,176.703)"/>
<path style=" stroke:none;fill-rule:evenodd;fill:rgb(13.729858%,12.159729%,12.548828%);fill-opacity:1;" d="M 283.257812 80.894531 L 290.078125 80.945312 L 286.382812 86.675781 Z M 283.257812 80.894531 "/>
<path style="fill:none;stroke-width:20.0013;stroke-linecap:butt;stroke-linejoin:miter;stroke:rgb(13.729858%,12.159729%,12.548828%);stroke-opacity:1;stroke-miterlimit:22.9256;" d="M 4817.615044 1651.172669 L 5291.381836 1651.172669 " transform="matrix(0.062976,0,0,-0.062976,18.559,176.703)"/>
<path style=" stroke:none;fill-rule:evenodd;fill:rgb(13.729858%,12.159729%,12.548828%);fill-opacity:1;" d="M 351.269531 69.425781 L 357.257812 72.71875 L 351.269531 76.011719 Z M 351.269531 69.425781 "/>
<path style=" stroke:none;fill-rule:nonzero;fill:rgb(13.729858%,12.159729%,12.548828%);fill-opacity:1;" d="M 362.097656 72.589844 C 362.097656 70.792969 362.578125 69.390625 363.542969 68.375 C 364.511719 67.359375 365.753906 66.847656 367.28125 66.847656 C 368.277344 66.847656 369.179688 67.089844 369.980469 67.566406 C 370.78125 68.042969 371.394531 68.707031 371.816406 69.5625 C 372.234375 70.414062 372.445312 71.382812 372.445312 72.464844 C 372.445312 73.5625 372.226562 74.546875 371.78125 75.410156 C 371.339844 76.277344 370.710938 76.929688 369.898438 77.375 C 369.085938 77.824219 368.210938 78.042969 367.273438 78.042969 C 366.253906 78.042969 365.34375 77.800781 364.542969 77.304688 C 363.738281 76.816406 363.132812 76.140625 362.71875 75.289062 C 362.304688 74.441406 362.097656 73.539062 362.097656 72.589844 Z M 363.574219 72.613281 C 363.574219 73.917969 363.925781 74.941406 364.625 75.695312 C 365.328125 76.445312 366.207031 76.820312 367.265625 76.820312 C 368.34375 76.820312 369.230469 76.441406 369.925781 75.683594 C 370.621094 74.925781 370.972656 73.851562 370.972656 72.457031 C 370.972656 71.578125 370.820312 70.808594 370.523438 70.152344 C 370.226562 69.496094 369.789062 68.984375 369.21875 68.621094 C 368.644531 68.261719 368 68.082031 367.289062 68.082031 C 366.273438 68.082031 365.402344 68.429688 364.671875 69.125 C 363.941406 69.820312 363.574219 70.984375 363.574219 72.613281 "/>
<path style=" stroke:none;fill-rule:nonzero;fill:rgb(13.729858%,12.159729%,12.548828%);fill-opacity:1;" d="M 379.257812 77.859375 L 379.257812 76.710938 C 378.648438 77.597656 377.816406 78.035156 376.769531 78.035156 C 376.308594 78.035156 375.875 77.949219 375.476562 77.773438 C 375.074219 77.597656 374.777344 77.371094 374.582031 77.105469 C 374.386719 76.835938 374.25 76.507812 374.171875 76.121094 C 374.121094 75.859375 374.09375 75.445312 374.09375 74.878906 L 374.09375 70.023438 L 375.417969 70.023438 L 375.417969 74.367188 C 375.417969 75.0625 375.445312 75.53125 375.5 75.773438 C 375.585938 76.121094 375.761719 76.394531 376.03125 76.597656 C 376.304688 76.792969 376.636719 76.894531 377.035156 76.894531 C 377.433594 76.894531 377.808594 76.792969 378.15625 76.589844 C 378.507812 76.382812 378.753906 76.105469 378.898438 75.753906 C 379.042969 75.402344 379.117188 74.890625 379.117188 74.222656 L 379.117188 70.023438 L 380.445312 70.023438 L 380.445312 77.859375 L 379.257812 77.859375 "/>
<path style=" stroke:none;fill-rule:nonzero;fill:rgb(13.729858%,12.159729%,12.548828%);fill-opacity:1;" d="M 385.429688 76.671875 L 385.617188 77.84375 C 385.246094 77.921875 384.910156 77.964844 384.617188 77.964844 C 384.132812 77.964844 383.761719 77.886719 383.492188 77.734375 C 383.226562 77.582031 383.042969 77.382812 382.933594 77.132812 C 382.824219 76.886719 382.769531 76.363281 382.769531 75.566406 L 382.769531 71.054688 L 381.796875 71.054688 L 381.796875 70.023438 L 382.769531 70.023438 L 382.769531 68.082031 L 384.09375 67.285156 L 384.09375 70.023438 L 385.429688 70.023438 L 385.429688 71.054688 L 384.09375 71.054688 L 384.09375 75.636719 C 384.09375 76.019531 384.117188 76.261719 384.160156 76.367188 C 384.210938 76.476562 384.285156 76.5625 384.390625 76.628906 C 384.496094 76.691406 384.648438 76.722656 384.84375 76.722656 C 384.992188 76.722656 385.1875 76.707031 385.429688 76.671875 "/>
<g clip-path="url(#clip9)" clip-rule="nonzero">
<path style=" stroke:none;fill-rule:nonzero;fill:rgb(13.729858%,12.159729%,12.548828%);fill-opacity:1;" d="M 386.726562 80.863281 L 386.726562 70.023438 L 387.9375 70.023438 L 387.9375 71.042969 C 388.222656 70.644531 388.542969 70.34375 388.902344 70.144531 C 389.261719 69.945312 389.699219 69.84375 390.207031 69.84375 C 390.878906 69.84375 391.46875 70.019531 391.980469 70.359375 C 392.492188 70.707031 392.878906 71.191406 393.136719 71.820312 C 393.402344 72.445312 393.53125 73.132812 393.53125 73.882812 C 393.53125 74.683594 393.386719 75.40625 393.097656 76.050781 C 392.8125 76.691406 392.394531 77.183594 391.84375 77.523438 C 391.296875 77.867188 390.71875 78.035156 390.113281 78.035156 C 389.667969 78.035156 389.273438 77.945312 388.921875 77.757812 C 388.570312 77.570312 388.28125 77.332031 388.054688 77.050781 L 388.054688 80.863281 Z M 387.929688 73.984375 C 387.929688 74.992188 388.132812 75.738281 388.542969 76.222656 C 388.949219 76.703125 389.445312 76.945312 390.027344 76.945312 C 390.613281 76.945312 391.121094 76.695312 391.542969 76.195312 C 391.960938 75.695312 392.171875 74.921875 392.171875 73.875 C 392.171875 72.875 391.96875 72.128906 391.558594 71.628906 C 391.144531 71.132812 390.65625 70.886719 390.085938 70.886719 C 389.519531 70.886719 389.019531 71.148438 388.582031 71.679688 C 388.144531 72.207031 387.929688 72.976562 387.929688 73.984375 "/>
</g>
<path style="fill:none;stroke-width:20.0013;stroke-linecap:butt;stroke-linejoin:miter;stroke:rgb(13.729858%,12.159729%,12.548828%);stroke-opacity:1;stroke-miterlimit:22.9256;" d="M 2612.782052 2233.797895 L 3222.699421 2233.797895 " transform="matrix(0.062976,0,0,-0.062976,18.559,176.703)"/>
<path style=" stroke:none;fill-rule:evenodd;fill:rgb(13.729858%,12.159729%,12.548828%);fill-opacity:1;" d="M 220.996094 32.738281 L 226.980469 36.027344 L 220.996094 39.320312 Z M 220.996094 32.738281 "/>
<path style="fill:none;stroke-width:20.0013;stroke-linecap:butt;stroke-linejoin:miter;stroke:rgb(13.729858%,12.159729%,12.548828%);stroke-opacity:1;stroke-dasharray:20.0013,100.006;stroke-miterlimit:22.9256;" d="M 1355.606699 2244.652725 L 1965.524069 2244.652725 " transform="matrix(0.062976,0,0,-0.062976,18.559,176.703)"/>
<path style=" stroke:none;fill-rule:evenodd;fill:rgb(13.729858%,12.159729%,12.548828%);fill-opacity:1;" d="M 141.820312 32.050781 L 147.804688 35.34375 L 141.820312 38.636719 Z M 141.820312 32.050781 "/>
<path style="fill:none;stroke-width:20.0013;stroke-linecap:butt;stroke-linejoin:miter;stroke:rgb(13.729858%,12.159729%,12.548828%);stroke-opacity:1;stroke-miterlimit:22.9256;" d="M 2585.613964 1145.275581 L 3195.469306 1145.275581 " transform="matrix(0.062976,0,0,-0.062976,18.559,176.703)"/>
<path style=" stroke:none;fill-rule:evenodd;fill:rgb(13.729858%,12.159729%,12.548828%);fill-opacity:1;" d="M 219.277344 101.285156 L 225.261719 104.578125 L 219.277344 107.871094 Z M 219.277344 101.285156 "/>
<path style="fill:none;stroke-width:20.0013;stroke-linecap:butt;stroke-linejoin:miter;stroke:rgb(13.729858%,12.159729%,12.548828%);stroke-opacity:1;stroke-dasharray:20.0013,100.006;stroke-miterlimit:22.9256;" d="M 1328.376584 1156.130411 L 1938.231926 1156.130411 " transform="matrix(0.062976,0,0,-0.062976,18.559,176.703)"/>
<path style=" stroke:none;fill-rule:evenodd;fill:rgb(13.729858%,12.159729%,12.548828%);fill-opacity:1;" d="M 140.101562 100.601562 L 146.089844 103.894531 L 140.101562 107.1875 Z M 140.101562 100.601562 "/>
<path style="fill:none;stroke-width:20.0013;stroke-linecap:butt;stroke-linejoin:miter;stroke:rgb(13.729858%,12.159729%,12.548828%);stroke-opacity:1;stroke-miterlimit:22.9256;" d="M 2558.383849 1297.677389 L 3287.704344 2026.997884 " transform="matrix(0.062976,0,0,-0.062976,18.559,176.703)"/>
<path style=" stroke:none;fill-rule:evenodd;fill:rgb(13.729858%,12.159729%,12.548828%);fill-opacity:1;" d="M 222.910156 47.089844 L 229.46875 45.1875 L 227.566406 51.746094 Z M 222.910156 47.089844 "/>
<path style="fill:none;stroke-width:20.0013;stroke-linecap:butt;stroke-linejoin:miter;stroke:rgb(13.729858%,12.159729%,12.548828%);stroke-opacity:1;stroke-dasharray:20.0013,100.006;stroke-miterlimit:22.9256;" d="M 1328.376584 1275.905702 L 2057.697079 2005.226197 " transform="matrix(0.062976,0,0,-0.062976,18.559,176.703)"/>
<path style=" stroke:none;fill-rule:evenodd;fill:rgb(13.729858%,12.159729%,12.548828%);fill-opacity:1;" d="M 145.449219 48.460938 L 152.007812 46.558594 L 150.105469 53.117188 Z M 145.449219 48.460938 "/>
<path style="fill:none;stroke-width:20.0013;stroke-linecap:butt;stroke-linejoin:miter;stroke:rgb(13.729858%,12.159729%,12.548828%);stroke-opacity:1;stroke-miterlimit:22.9256;" d="M 2558.383849 2088.343178 L 3287.704344 1359.022683 " transform="matrix(0.062976,0,0,-0.062976,18.559,176.703)"/>
<path style=" stroke:none;fill-rule:evenodd;fill:rgb(13.729858%,12.159729%,12.548828%);fill-opacity:1;" d="M 227.566406 88.421875 L 229.46875 94.980469 L 222.910156 93.078125 Z M 227.566406 88.421875 "/>
<path style="fill:none;stroke-width:20.0013;stroke-linecap:butt;stroke-linejoin:miter;stroke:rgb(13.729858%,12.159729%,12.548828%);stroke-opacity:1;stroke-dasharray:20.0013,100.006;stroke-miterlimit:22.9256;" d="M 1301.146468 2099.260036 L 2030.466964 1369.93954 " transform="matrix(0.062976,0,0,-0.062976,18.559,176.703)"/>
<path style=" stroke:none;fill-rule:evenodd;fill:rgb(13.729858%,12.159729%,12.548828%);fill-opacity:1;" d="M 148.390625 87.738281 L 150.292969 94.296875 L 143.738281 92.394531 Z M 148.390625 87.738281 "/>
<path style=" stroke:none;fill-rule:nonzero;fill:rgb(13.729858%,12.159729%,12.548828%);fill-opacity:1;" d="M 312.511719 70.355469 L 313.882812 70.523438 C 313.667969 71.328125 313.265625 71.949219 312.679688 72.394531 C 312.09375 72.832031 311.347656 73.054688 310.4375 73.054688 C 309.289062 73.054688 308.382812 72.703125 307.710938 71.996094 C 307.039062 71.292969 306.703125 70.300781 306.703125 69.027344 C 306.703125 67.707031 307.042969 66.683594 307.722656 65.957031 C 308.402344 65.230469 309.28125 64.863281 310.363281 64.863281 C 311.410156 64.863281 312.269531 65.222656 312.929688 65.933594 C 313.597656 66.648438 313.929688 67.652344 313.929688 68.945312 C 313.929688 69.023438 313.925781 69.144531 313.921875 69.300781 L 308.078125 69.300781 C 308.125 70.160156 308.367188 70.820312 308.808594 71.277344 C 309.246094 71.734375 309.789062 71.964844 310.445312 71.964844 C 310.929688 71.964844 311.347656 71.835938 311.691406 71.578125 C 312.035156 71.324219 312.308594 70.917969 312.511719 70.355469 Z M 308.148438 68.207031 L 312.523438 68.207031 C 312.46875 67.546875 312.296875 67.054688 312.023438 66.726562 C 311.601562 66.214844 311.050781 65.957031 310.378906 65.957031 C 309.769531 65.957031 309.253906 66.160156 308.839844 66.570312 C 308.425781 66.976562 308.195312 67.523438 308.148438 68.207031 "/>
<path style=" stroke:none;fill-rule:nonzero;fill:rgb(13.729858%,12.159729%,12.548828%);fill-opacity:1;" d="M 315.878906 73.109375 L 315.878906 71.960938 L 316.875 71.960938 L 316.875 73.109375 Z M 315.878906 80.078125 L 315.878906 74.199219 L 316.875 74.199219 L 316.875 80.078125 L 315.878906 80.078125 "/>
<path style=" stroke:none;fill-rule:nonzero;fill:rgb(13.729858%,12.159729%,12.548828%);fill-opacity:1;" d="M 252.871094 34.542969 L 254.246094 34.714844 C 254.027344 35.519531 253.628906 36.140625 253.042969 36.582031 C 252.457031 37.023438 251.707031 37.246094 250.796875 37.246094 C 249.652344 37.246094 248.742188 36.894531 248.074219 36.1875 C 247.402344 35.480469 247.066406 34.492188 247.066406 33.21875 C 247.066406 31.898438 247.40625 30.875 248.082031 30.148438 C 248.761719 29.417969 249.640625 29.054688 250.726562 29.054688 C 251.773438 29.054688 252.628906 29.410156 253.292969 30.125 C 253.957031 30.835938 254.289062 31.84375 254.289062 33.132812 C 254.289062 33.214844 254.289062 33.332031 254.28125 33.488281 L 248.4375 33.488281 C 248.484375 34.351562 248.730469 35.011719 249.167969 35.464844 C 249.605469 35.925781 250.152344 36.15625 250.808594 36.15625 C 251.292969 36.15625 251.707031 36.027344 252.054688 35.769531 C 252.398438 35.515625 252.671875 35.105469 252.871094 34.542969 Z M 248.511719 32.394531 L 252.886719 32.394531 C 252.828125 31.738281 252.660156 31.242188 252.386719 30.914062 C 251.960938 30.402344 251.414062 30.148438 250.742188 30.148438 C 250.132812 30.148438 249.617188 30.351562 249.203125 30.757812 C 248.785156 31.167969 248.558594 31.714844 248.511719 32.394531 "/>
<path style=" stroke:none;fill-rule:nonzero;fill:rgb(13.729858%,12.159729%,12.548828%);fill-opacity:1;" d="M 256.230469 37.308594 L 256.230469 36.152344 L 257.226562 36.152344 L 257.226562 37.308594 Z M 254.96875 46.546875 L 255.15625 45.699219 C 255.355469 45.753906 255.511719 45.777344 255.625 45.777344 C 255.828125 45.777344 255.980469 45.710938 256.078125 45.578125 C 256.179688 45.441406 256.230469 45.101562 256.230469 44.566406 L 256.230469 38.390625 L 257.226562 38.390625 L 257.226562 44.589844 C 257.226562 45.3125 257.132812 45.8125 256.945312 46.097656 C 256.703125 46.46875 256.304688 46.652344 255.75 46.652344 C 255.476562 46.652344 255.21875 46.617188 254.96875 46.546875 "/>
<path style=" stroke:none;fill-rule:nonzero;fill:rgb(13.729858%,12.159729%,12.548828%);fill-opacity:1;" d="M 173.695312 33.859375 L 175.070312 34.027344 C 174.851562 34.832031 174.453125 35.453125 173.867188 35.898438 C 173.28125 36.339844 172.535156 36.558594 171.625 36.558594 C 170.476562 36.558594 169.570312 36.207031 168.898438 35.503906 C 168.226562 34.796875 167.890625 33.808594 167.890625 32.53125 C 167.890625 31.210938 168.230469 30.1875 168.910156 29.460938 C 169.589844 28.734375 170.46875 28.367188 171.550781 28.367188 C 172.597656 28.367188 173.457031 28.726562 174.117188 29.4375 C 174.78125 30.152344 175.117188 31.15625 175.117188 32.449219 C 175.117188 32.53125 175.113281 32.648438 175.109375 32.804688 L 169.265625 32.804688 C 169.3125 33.664062 169.554688 34.324219 169.996094 34.78125 C 170.433594 35.238281 170.976562 35.46875 171.632812 35.46875 C 172.117188 35.46875 172.535156 35.339844 172.878906 35.082031 C 173.222656 34.828125 173.496094 34.421875 173.695312 33.859375 Z M 169.335938 31.710938 L 173.710938 31.710938 C 173.65625 31.054688 173.484375 30.558594 173.210938 30.230469 C 172.789062 29.71875 172.238281 29.460938 171.566406 29.460938 C 170.957031 29.460938 170.441406 29.664062 170.027344 30.074219 C 169.613281 30.480469 169.382812 31.027344 169.335938 31.710938 "/>
<path style=" stroke:none;fill-rule:nonzero;fill:rgb(13.729858%,12.159729%,12.548828%);fill-opacity:1;" d="M 172.667969 102.066406 L 174.042969 102.234375 C 173.824219 103.039062 173.425781 103.660156 172.839844 104.105469 C 172.253906 104.546875 171.503906 104.765625 170.59375 104.765625 C 169.449219 104.765625 168.539062 104.414062 167.871094 103.707031 C 167.199219 103.003906 166.863281 102.011719 166.863281 100.738281 C 166.863281 99.417969 167.203125 98.394531 167.878906 97.667969 C 168.558594 96.941406 169.4375 96.574219 170.523438 96.574219 C 171.570312 96.574219 172.425781 96.933594 173.089844 97.644531 C 173.753906 98.359375 174.085938 99.363281 174.085938 100.65625 C 174.085938 100.734375 174.085938 100.855469 174.078125 101.011719 L 168.234375 101.011719 C 168.28125 101.871094 168.527344 102.53125 168.964844 102.988281 C 169.40625 103.445312 169.949219 103.675781 170.601562 103.675781 C 171.089844 103.675781 171.503906 103.546875 171.851562 103.289062 C 172.195312 103.035156 172.46875 102.628906 172.667969 102.066406 Z M 168.308594 99.917969 L 172.683594 99.917969 C 172.625 99.261719 172.457031 98.765625 172.183594 98.4375 C 171.757812 97.925781 171.210938 97.667969 170.539062 97.667969 C 169.929688 97.667969 169.414062 97.871094 169 98.28125 C 168.582031 98.6875 168.355469 99.234375 168.308594 99.917969 "/>
<path style=" stroke:none;fill-rule:nonzero;fill:rgb(13.729858%,12.159729%,12.548828%);fill-opacity:1;" d="M 175.277344 43.582031 L 175.277344 35.464844 L 176.277344 35.464844 L 176.277344 40.09375 L 178.636719 37.703125 L 179.921875 37.703125 L 177.675781 39.882812 L 180.152344 43.582031 L 178.921875 43.582031 L 176.980469 40.574219 L 176.277344 41.25 L 176.277344 43.582031 L 175.277344 43.582031 "/>
<path style=" stroke:none;fill-rule:nonzero;fill:rgb(13.729858%,12.159729%,12.548828%);fill-opacity:1;" d="M 174.25 111.789062 L 174.25 103.671875 L 175.25 103.671875 L 175.25 108.300781 L 177.605469 105.910156 L 178.894531 105.910156 L 176.648438 108.089844 L 179.125 111.789062 L 177.894531 111.789062 L 175.953125 108.78125 L 175.25 109.457031 L 175.25 111.789062 L 174.25 111.789062 "/>
<path style=" stroke:none;fill-rule:nonzero;fill:rgb(13.729858%,12.159729%,12.548828%);fill-opacity:1;" d="M 251.929688 102.886719 L 253.300781 103.054688 C 253.085938 103.859375 252.683594 104.480469 252.101562 104.925781 C 251.515625 105.367188 250.765625 105.589844 249.855469 105.589844 C 248.710938 105.589844 247.800781 105.234375 247.132812 104.53125 C 246.457031 103.824219 246.121094 102.835938 246.121094 101.558594 C 246.121094 100.238281 246.464844 99.21875 247.140625 98.488281 C 247.820312 97.761719 248.699219 97.394531 249.785156 97.394531 C 250.832031 97.394531 251.6875 97.753906 252.351562 98.464844 C 253.015625 99.179688 253.347656 100.183594 253.347656 101.476562 C 253.347656 101.558594 253.34375 101.675781 253.339844 101.832031 L 247.496094 101.832031 C 247.542969 102.695312 247.789062 103.355469 248.226562 103.808594 C 248.664062 104.269531 249.210938 104.496094 249.863281 104.496094 C 250.351562 104.496094 250.765625 104.367188 251.109375 104.113281 C 251.457031 103.855469 251.726562 103.449219 251.929688 102.886719 Z M 247.570312 100.738281 L 251.945312 100.738281 C 251.886719 100.082031 251.71875 99.585938 251.441406 99.257812 C 251.019531 98.746094 250.472656 98.488281 249.796875 98.488281 C 249.1875 98.488281 248.675781 98.695312 248.257812 99.101562 C 247.84375 99.507812 247.613281 100.054688 247.570312 100.738281 "/>
<path style=" stroke:none;fill-rule:nonzero;fill:rgb(13.729858%,12.159729%,12.548828%);fill-opacity:1;" d="M 255.289062 105.652344 L 255.289062 104.496094 L 256.285156 104.496094 L 256.285156 105.652344 Z M 254.027344 114.890625 L 254.210938 114.042969 C 254.414062 114.09375 254.570312 114.121094 254.683594 114.121094 C 254.886719 114.121094 255.039062 114.050781 255.136719 113.917969 C 255.238281 113.785156 255.289062 113.445312 255.289062 112.90625 L 255.289062 106.730469 L 256.285156 106.730469 L 256.285156 112.929688 C 256.285156 113.652344 256.1875 114.15625 256 114.441406 C 255.761719 114.808594 255.363281 114.996094 254.804688 114.996094 C 254.535156 114.996094 254.273438 114.960938 254.027344 114.890625 "/>
<path style="fill:none;stroke-width:20.0013;stroke-linecap:butt;stroke-linejoin:miter;stroke:rgb(13.729858%,12.159729%,12.548828%);stroke-opacity:1;stroke-miterlimit:22.9256;" d="M 4544.445503 1939.849109 L 4544.445503 1390.09851 " transform="matrix(0.062976,0,0,-0.062976,18.559,176.703)"/>
<path style="fill:none;stroke-width:20.0013;stroke-linecap:butt;stroke-linejoin:miter;stroke:rgb(13.729858%,12.159729%,12.548828%);stroke-opacity:1;stroke-miterlimit:22.9256;" d="M 3597.470167 2508.518126 L 3597.470167 1958.705499 " transform="matrix(0.062976,0,0,-0.062976,18.559,176.703)"/>
<path style="fill:none;stroke-width:20.0013;stroke-linecap:butt;stroke-linejoin:miter;stroke:rgb(13.729858%,12.159729%,12.548828%);stroke-opacity:1;stroke-miterlimit:22.9256;" d="M 2340.232787 2519.372956 L 2340.232787 1969.560329 " transform="matrix(0.062976,0,0,-0.062976,18.559,176.703)"/>
<path style="fill:none;stroke-width:20.0013;stroke-linecap:butt;stroke-linejoin:miter;stroke:rgb(13.729858%,12.159729%,12.548828%);stroke-opacity:1;stroke-miterlimit:22.9256;" d="M 2323.919529 1436.30907 L 2323.919529 886.496443 " transform="matrix(0.062976,0,0,-0.062976,18.559,176.703)"/>
<path style="fill:none;stroke-width:20.0013;stroke-linecap:butt;stroke-linejoin:miter;stroke:rgb(13.729858%,12.159729%,12.548828%);stroke-opacity:1;stroke-miterlimit:22.9256;" d="M 3582.459489 1423.283275 L 3582.459489 873.470648 " transform="matrix(0.062976,0,0,-0.062976,18.559,176.703)"/>
<path style=" stroke:none;fill-rule:nonzero;fill:rgb(13.729858%,12.159729%,12.548828%);fill-opacity:1;" d="M 19.996094 75.101562 L 19.996094 64.28125 L 21.425781 64.28125 L 21.425781 75.101562 L 19.996094 75.101562 "/>
<path style=" stroke:none;fill-rule:nonzero;fill:rgb(13.729858%,12.159729%,12.548828%);fill-opacity:1;" d="M 23.78125 75.101562 L 23.78125 67.265625 L 24.976562 67.265625 L 24.976562 68.378906 C 25.550781 67.515625 26.382812 67.085938 27.46875 67.085938 C 27.941406 67.085938 28.375 67.171875 28.769531 67.339844 C 29.167969 67.511719 29.464844 67.734375 29.660156 68.011719 C 29.859375 68.285156 29.996094 68.613281 30.074219 68.992188 C 30.125 69.238281 30.148438 69.667969 30.148438 70.28125 L 30.148438 75.101562 L 28.820312 75.101562 L 28.820312 70.332031 C 28.820312 69.792969 28.769531 69.390625 28.664062 69.121094 C 28.5625 68.851562 28.378906 68.640625 28.117188 68.480469 C 27.851562 68.316406 27.542969 68.238281 27.1875 68.238281 C 26.621094 68.238281 26.136719 68.417969 25.722656 68.777344 C 25.3125 69.136719 25.109375 69.816406 25.109375 70.820312 L 25.109375 75.101562 L 23.78125 75.101562 "/>
<path style=" stroke:none;fill-rule:nonzero;fill:rgb(13.729858%,12.159729%,12.548828%);fill-opacity:1;" d="M 32.1875 78.105469 L 32.1875 67.265625 L 33.394531 67.265625 L 33.394531 68.28125 C 33.679688 67.886719 34.003906 67.585938 34.363281 67.386719 C 34.722656 67.1875 35.15625 67.085938 35.667969 67.085938 C 36.339844 67.085938 36.925781 67.261719 37.4375 67.601562 C 37.953125 67.949219 38.339844 68.433594 38.597656 69.0625 C 38.859375 69.6875 38.992188 70.375 38.992188 71.125 C 38.992188 71.925781 38.847656 72.648438 38.558594 73.289062 C 38.269531 73.933594 37.851562 74.425781 37.304688 74.765625 C 36.753906 75.105469 36.175781 75.277344 35.574219 75.277344 C 35.128906 75.277344 34.734375 75.1875 34.382812 75 C 34.027344 74.8125 33.742188 74.574219 33.515625 74.289062 L 33.515625 78.105469 Z M 33.386719 71.226562 C 33.386719 72.234375 33.59375 72.980469 34 73.464844 C 34.410156 73.945312 34.90625 74.1875 35.484375 74.1875 C 36.074219 74.1875 36.578125 73.9375 37 73.4375 C 37.421875 72.9375 37.632812 72.164062 37.632812 71.117188 C 37.632812 70.117188 37.425781 69.371094 37.015625 68.871094 C 36.605469 68.375 36.113281 68.125 35.542969 68.125 C 34.976562 68.125 34.476562 68.390625 34.039062 68.921875 C 33.605469 69.449219 33.386719 70.21875 33.386719 71.226562 "/>
<path style=" stroke:none;fill-rule:nonzero;fill:rgb(13.729858%,12.159729%,12.548828%);fill-opacity:1;" d="M 45.730469 75.101562 L 45.730469 73.949219 C 45.117188 74.835938 44.289062 75.277344 43.242188 75.277344 C 42.78125 75.277344 42.347656 75.191406 41.945312 75.015625 C 41.546875 74.835938 41.246094 74.613281 41.054688 74.347656 C 40.855469 74.078125 40.722656 73.75 40.644531 73.363281 C 40.589844 73.097656 40.5625 72.6875 40.5625 72.121094 L 40.5625 67.265625 L 41.890625 67.265625 L 41.890625 71.609375 C 41.890625 72.304688 41.917969 72.773438 41.972656 73.015625 C 42.054688 73.363281 42.234375 73.636719 42.503906 73.835938 C 42.773438 74.035156 43.109375 74.132812 43.507812 74.132812 C 43.90625 74.132812 44.277344 74.035156 44.628906 73.828125 C 44.980469 73.625 45.226562 73.347656 45.367188 72.996094 C 45.515625 72.644531 45.589844 72.132812 45.589844 71.464844 L 45.589844 67.265625 L 46.914062 67.265625 L 46.914062 75.101562 L 45.730469 75.101562 "/>
<path style=" stroke:none;fill-rule:nonzero;fill:rgb(13.729858%,12.159729%,12.548828%);fill-opacity:1;" d="M 51.898438 73.914062 L 52.089844 75.085938 C 51.71875 75.164062 51.382812 75.207031 51.085938 75.207031 C 50.605469 75.207031 50.230469 75.128906 49.964844 74.976562 C 49.699219 74.824219 49.511719 74.625 49.40625 74.375 C 49.296875 74.128906 49.242188 73.601562 49.242188 72.808594 L 49.242188 68.296875 L 48.265625 68.296875 L 48.265625 67.265625 L 49.242188 67.265625 L 49.242188 65.324219 L 50.5625 64.527344 L 50.5625 67.265625 L 51.898438 67.265625 L 51.898438 68.296875 L 50.5625 68.296875 L 50.5625 72.878906 C 50.5625 73.261719 50.585938 73.503906 50.632812 73.609375 C 50.679688 73.71875 50.753906 73.804688 50.859375 73.871094 C 50.964844 73.933594 51.117188 73.964844 51.3125 73.964844 C 51.460938 73.964844 51.65625 73.949219 51.898438 73.914062 "/>
</g>
</svg>
