<?xml version="1.0" encoding="UTF-8"?>
<svg xmlns="http://www.w3.org/2000/svg" xmlns:xlink="http://www.w3.org/1999/xlink" width="390.543pt" height="96.851pt" viewBox="0 0 390.543 96.851" version="1.2">
<defs>
<clipPath id="clip1">
  <path d="M 211 54 L 212.835938 54 L 212.835938 62 L 211 62 Z M 211 54 "/>
</clipPath>
<clipPath id="clip2">
  <path d="M 37 1 L 144 1 L 144 95.851562 L 37 95.851562 Z M 37 1 "/>
</clipPath>
<clipPath id="clip3">
  <path d="M 18.558594 1 L 90 1 L 90 71 L 18.558594 71 Z M 18.558594 1 "/>
</clipPath>
<clipPath id="clip4">
  <path d="M 18.558594 26 L 88 26 L 88 95.851562 L 18.558594 95.851562 Z M 18.558594 26 "/>
</clipPath>
<clipPath id="clip5">
  <path d="M 18.558594 1 L 109 1 L 109 77 L 18.558594 77 Z M 18.558594 1 "/>
</clipPath>
<clipPath id="clip6">
  <path d="M 18.558594 23 L 111 23 L 111 95.851562 L 18.558594 95.851562 Z M 18.558594 23 "/>
</clipPath>
</defs>
<g id="surface1">
<path style=" stroke:none;fill-rule:nonzero;fill:rgb(13.729858%,12.159729%,12.548828%);fill-opacity:1;" d="M 204.742188 56.25 L 204.605469 55.121094 C 204.871094 55.191406 205.101562 55.226562 205.296875 55.226562 C 205.5625 55.226562 205.777344 55.183594 205.9375 55.09375 C 206.101562 55.003906 206.230469 54.878906 206.335938 54.71875 C 206.410156 54.597656 206.53125 54.300781 206.703125 53.820312 C 206.726562 53.753906 206.761719 53.65625 206.808594 53.527344 L 204.113281 46.402344 L 205.410156 46.402344 L 206.890625 50.519531 C 207.082031 51.042969 207.253906 51.589844 207.40625 52.167969 C 207.546875 51.613281 207.710938 51.074219 207.902344 50.546875 L 209.421875 46.402344 L 210.625 46.402344 L 207.921875 53.636719 C 207.632812 54.417969 207.40625 54.953125 207.246094 55.25 C 207.03125 55.644531 206.785156 55.9375 206.511719 56.121094 C 206.230469 56.304688 205.902344 56.398438 205.519531 56.398438 C 205.285156 56.398438 205.027344 56.351562 204.742188 56.25 "/>
<g clip-path="url(#clip1)" clip-rule="nonzero">
<path style=" stroke:none;fill-rule:nonzero;fill:rgb(13.729858%,12.159729%,12.548828%);fill-opacity:1;" d="M 211.476562 55.28125 L 211.476562 54.238281 L 212.378906 54.238281 L 212.378906 55.28125 Z M 211.476562 61.601562 L 211.476562 56.269531 L 212.378906 56.269531 L 212.378906 61.601562 L 211.476562 61.601562 "/>
</g>
<path style=" stroke:none;fill-rule:nonzero;fill:rgb(13.729858%,12.159729%,12.548828%);fill-opacity:1;" d="M 94.542969 51.238281 L 94.542969 50.195312 L 95.449219 50.195312 L 95.449219 51.238281 Z M 94.542969 57.558594 L 94.542969 52.226562 L 95.449219 52.226562 L 95.449219 57.558594 L 94.542969 57.558594 "/>
<path style=" stroke:none;fill-rule:nonzero;fill:rgb(13.729858%,12.159729%,12.548828%);fill-opacity:1;" d="M 33.078125 21.109375 L 32.941406 19.980469 C 33.207031 20.050781 33.4375 20.085938 33.632812 20.085938 C 33.898438 20.085938 34.113281 20.039062 34.273438 19.953125 C 34.4375 19.863281 34.566406 19.738281 34.671875 19.578125 C 34.746094 19.457031 34.867188 19.160156 35.039062 18.679688 C 35.0625 18.613281 35.097656 18.515625 35.144531 18.386719 L 32.449219 11.261719 L 33.746094 11.261719 L 35.226562 15.378906 C 35.417969 15.902344 35.589844 16.449219 35.742188 17.027344 C 35.882812 16.472656 36.046875 15.933594 36.238281 15.40625 L 37.757812 11.261719 L 38.960938 11.261719 L 36.257812 18.492188 C 35.96875 19.277344 35.742188 19.8125 35.582031 20.105469 C 35.367188 20.503906 35.121094 20.792969 34.847656 20.980469 C 34.566406 21.164062 34.238281 21.257812 33.855469 21.257812 C 33.621094 21.257812 33.363281 21.210938 33.078125 21.109375 "/>
<path style=" stroke:none;fill-rule:nonzero;fill:rgb(13.729858%,12.159729%,12.548828%);fill-opacity:1;" d="M 39.800781 20.148438 L 39.800781 19.097656 L 40.707031 19.097656 L 40.707031 20.148438 Z M 38.65625 28.527344 L 38.828125 27.761719 C 39.007812 27.808594 39.152344 27.832031 39.253906 27.832031 C 39.4375 27.832031 39.578125 27.769531 39.664062 27.648438 C 39.757812 27.527344 39.800781 27.21875 39.800781 26.730469 L 39.800781 21.125 L 40.707031 21.125 L 40.707031 26.75 C 40.707031 27.40625 40.621094 27.863281 40.449219 28.121094 C 40.234375 28.457031 39.871094 28.625 39.367188 28.625 C 39.121094 28.625 38.882812 28.59375 38.65625 28.527344 "/>
<path style=" stroke:none;fill-rule:nonzero;fill:rgb(13.729858%,12.159729%,12.548828%);fill-opacity:1;" d="M 31.523438 82.6875 L 31.386719 81.554688 C 31.652344 81.625 31.882812 81.660156 32.078125 81.660156 C 32.34375 81.660156 32.558594 81.617188 32.71875 81.527344 C 32.882812 81.4375 33.011719 81.3125 33.113281 81.152344 C 33.191406 81.03125 33.3125 80.734375 33.484375 80.257812 C 33.507812 80.1875 33.542969 80.089844 33.589844 79.960938 L 30.894531 72.835938 L 32.191406 72.835938 L 33.671875 76.953125 C 33.863281 77.476562 34.035156 78.023438 34.1875 78.601562 C 34.328125 78.046875 34.492188 77.507812 34.683594 76.980469 L 36.203125 72.835938 L 37.40625 72.835938 L 34.703125 80.070312 C 34.414062 80.851562 34.1875 81.386719 34.027344 81.683594 C 33.8125 82.078125 33.566406 82.371094 33.292969 82.554688 C 33.011719 82.742188 32.683594 82.835938 32.300781 82.835938 C 32.066406 82.835938 31.808594 82.785156 31.523438 82.6875 "/>
<path style=" stroke:none;fill-rule:nonzero;fill:rgb(13.729858%,12.159729%,12.548828%);fill-opacity:1;" d="M 38.246094 81.722656 L 38.246094 80.671875 L 39.152344 80.671875 L 39.152344 81.722656 Z M 37.101562 90.105469 L 37.273438 89.335938 C 37.453125 89.382812 37.597656 89.40625 37.699219 89.40625 C 37.882812 89.40625 38.019531 89.34375 38.109375 89.222656 C 38.203125 89.101562 38.246094 88.792969 38.246094 88.304688 L 38.246094 82.703125 L 39.152344 82.703125 L 39.152344 88.328125 C 39.152344 88.984375 39.066406 89.4375 38.894531 89.699219 C 38.679688 90.03125 38.316406 90.199219 37.808594 90.199219 C 37.566406 90.199219 37.328125 90.167969 37.101562 90.105469 "/>
<g clip-path="url(#clip2)" clip-rule="nonzero">
<path style="fill:none;stroke-width:20.0013;stroke-linecap:butt;stroke-linejoin:miter;stroke:rgb(13.729858%,12.159729%,12.548828%);stroke-opacity:1;stroke-miterlimit:22.9256;" d="M 1257.253019 1078.071404 C 1410.522401 1078.071404 1534.805959 953.787846 1534.805959 800.518463 C 1534.805959 647.249081 1410.522401 522.965523 1257.253019 522.965523 C 1103.983637 522.965523 979.631716 647.249081 979.631716 800.518463 C 979.631716 953.787846 1103.983637 1078.071404 1257.253019 1078.071404 Z M 1257.253019 1078.071404 " transform="matrix(0.05714,0,0,-0.05714,18.559,95.851)"/>
</g>
<g clip-path="url(#clip3)" clip-rule="nonzero">
<path style="fill:none;stroke-width:20.0013;stroke-linecap:butt;stroke-linejoin:miter;stroke:rgb(13.729858%,12.159729%,12.548828%);stroke-opacity:1;stroke-miterlimit:22.9256;" d="M 315.692269 1649.515991 C 468.961651 1649.515991 593.245209 1525.232433 593.245209 1371.963051 C 593.245209 1218.693669 468.961651 1094.410111 315.692269 1094.410111 C 162.422887 1094.410111 38.139329 1218.693669 38.139329 1371.963051 C 38.139329 1525.232433 162.422887 1649.515991 315.692269 1649.515991 Z M 315.692269 1649.515991 " transform="matrix(0.05714,0,0,-0.05714,18.559,95.851)"/>
</g>
<g clip-path="url(#clip4)" clip-rule="nonzero">
<path style="fill:none;stroke-width:20.0013;stroke-linecap:butt;stroke-linejoin:miter;stroke:rgb(13.729858%,12.159729%,12.548828%);stroke-opacity:1;stroke-miterlimit:22.9256;" d="M 288.483877 571.913283 C 441.75326 571.913283 566.036817 447.629725 566.036817 294.360343 C 566.036817 141.090961 441.75326 16.807403 288.483877 16.807403 C 135.214495 16.807403 10.862574 141.090961 10.862574 294.360343 C 10.862574 447.629725 135.214495 571.913283 288.483877 571.913283 Z M 288.483877 571.913283 " transform="matrix(0.05714,0,0,-0.05714,18.559,95.851)"/>
</g>
<path style=" stroke:none;fill-rule:nonzero;fill:rgb(13.729858%,12.159729%,12.548828%);fill-opacity:1;" d="M 51.351562 54.921875 L 51.351562 54.679688 C 52.105469 54.679688 52.722656 54.808594 53.199219 55.066406 C 53.675781 55.320312 54.0625 55.734375 54.351562 56.304688 C 54.644531 56.875 54.792969 57.496094 54.792969 58.175781 C 54.792969 58.753906 54.675781 59.277344 54.449219 59.753906 C 54.222656 60.234375 53.910156 60.59375 53.515625 60.835938 C 53.121094 61.082031 52.746094 61.203125 52.386719 61.203125 C 51.996094 61.203125 51.660156 61.089844 51.382812 60.867188 C 51.109375 60.644531 50.859375 60.296875 50.640625 59.828125 C 50.394531 60.300781 50.117188 60.648438 49.808594 60.871094 C 49.496094 61.089844 49.148438 61.203125 48.765625 61.203125 C 48.429688 61.203125 48.078125 61.082031 47.703125 60.84375 C 47.332031 60.605469 47.03125 60.234375 46.804688 59.738281 C 46.574219 59.242188 46.460938 58.703125 46.460938 58.121094 C 46.460938 57.492188 46.589844 56.917969 46.84375 56.402344 C 47.039062 56 47.289062 55.667969 47.597656 55.402344 C 47.902344 55.140625 48.226562 54.953125 48.570312 54.84375 C 48.914062 54.734375 49.351562 54.679688 49.882812 54.679688 L 49.882812 54.921875 C 49.261719 54.984375 48.75 55.277344 48.347656 55.800781 C 47.941406 56.328125 47.742188 57.097656 47.742188 58.113281 C 47.742188 59.121094 47.894531 59.855469 48.203125 60.324219 C 48.390625 60.605469 48.652344 60.746094 48.992188 60.746094 C 49.273438 60.746094 49.542969 60.632812 49.792969 60.398438 C 50.042969 60.167969 50.257812 59.746094 50.441406 59.136719 C 50.242188 58.617188 50.117188 58.230469 50.054688 57.976562 C 49.996094 57.71875 49.964844 57.476562 49.964844 57.242188 C 49.964844 56.8125 50.066406 56.4375 50.265625 56.125 C 50.363281 55.96875 50.480469 55.894531 50.613281 55.894531 C 50.75 55.894531 50.871094 55.96875 50.96875 56.125 C 51.160156 56.421875 51.257812 56.78125 51.257812 57.203125 C 51.257812 57.722656 51.113281 58.367188 50.820312 59.136719 C 50.996094 59.75 51.199219 60.164062 51.433594 60.375 C 51.667969 60.585938 51.933594 60.691406 52.226562 60.691406 C 52.574219 60.691406 52.855469 60.558594 53.070312 60.285156 C 53.359375 59.917969 53.503906 59.230469 53.503906 58.230469 C 53.503906 57.011719 53.234375 56.109375 52.695312 55.53125 C 52.367188 55.175781 51.921875 54.972656 51.351562 54.921875 "/>
<path style=" stroke:none;fill-rule:nonzero;fill:rgb(13.729858%,12.159729%,12.548828%);fill-opacity:1;" d="M 65.035156 22.269531 L 65.035156 22.027344 C 65.789062 22.027344 66.40625 22.152344 66.882812 22.410156 C 67.359375 22.667969 67.742188 23.082031 68.035156 23.652344 C 68.328125 24.21875 68.476562 24.84375 68.476562 25.523438 C 68.476562 26.097656 68.359375 26.625 68.132812 27.101562 C 67.90625 27.582031 67.59375 27.941406 67.199219 28.183594 C 66.804688 28.429688 66.425781 28.550781 66.070312 28.550781 C 65.675781 28.550781 65.34375 28.4375 65.066406 28.214844 C 64.789062 27.992188 64.542969 27.644531 64.324219 27.175781 C 64.078125 27.648438 63.800781 27.996094 63.492188 28.21875 C 63.179688 28.4375 62.832031 28.550781 62.449219 28.550781 C 62.113281 28.550781 61.761719 28.429688 61.386719 28.191406 C 61.015625 27.953125 60.714844 27.582031 60.488281 27.085938 C 60.257812 26.589844 60.144531 26.046875 60.144531 25.46875 C 60.144531 24.839844 60.273438 24.265625 60.527344 23.746094 C 60.722656 23.34375 60.972656 23.011719 61.28125 22.75 C 61.585938 22.484375 61.910156 22.300781 62.253906 22.191406 C 62.597656 22.082031 63.035156 22.027344 63.566406 22.027344 L 63.566406 22.269531 C 62.945312 22.332031 62.433594 22.625 62.03125 23.148438 C 61.625 23.675781 61.425781 24.445312 61.425781 25.460938 C 61.425781 26.464844 61.578125 27.203125 61.886719 27.671875 C 62.074219 27.953125 62.335938 28.09375 62.675781 28.09375 C 62.957031 28.09375 63.226562 27.976562 63.476562 27.742188 C 63.726562 27.515625 63.941406 27.09375 64.125 26.484375 C 63.925781 25.964844 63.800781 25.574219 63.738281 25.320312 C 63.679688 25.066406 63.648438 24.824219 63.648438 24.589844 C 63.648438 24.160156 63.75 23.785156 63.949219 23.472656 C 64.046875 23.316406 64.164062 23.238281 64.296875 23.238281 C 64.433594 23.238281 64.554688 23.316406 64.652344 23.472656 C 64.84375 23.769531 64.941406 24.125 64.941406 24.550781 C 64.941406 25.066406 64.796875 25.714844 64.503906 26.484375 C 64.679688 27.097656 64.882812 27.507812 65.117188 27.722656 C 65.351562 27.933594 65.617188 28.039062 65.910156 28.039062 C 66.257812 28.039062 66.539062 27.902344 66.753906 27.628906 C 67.042969 27.265625 67.1875 26.578125 67.1875 25.574219 C 67.1875 24.355469 66.917969 23.457031 66.378906 22.875 C 66.050781 22.523438 65.605469 22.320312 65.035156 22.269531 "/>
<path style=" stroke:none;fill-rule:nonzero;fill:rgb(13.729858%,12.159729%,12.548828%);fill-opacity:1;" d="M 70.855469 25.757812 L 70.855469 24.710938 L 71.761719 24.710938 L 71.761719 25.757812 Z M 69.710938 34.140625 L 69.882812 33.375 C 70.0625 33.421875 70.207031 33.445312 70.308594 33.445312 C 70.492188 33.445312 70.628906 33.382812 70.71875 33.261719 C 70.808594 33.140625 70.855469 32.832031 70.855469 32.34375 L 70.855469 26.738281 L 71.761719 26.738281 L 71.761719 32.363281 C 71.761719 33.019531 71.675781 33.476562 71.503906 33.734375 C 71.285156 34.070312 70.925781 34.238281 70.417969 34.238281 C 70.175781 34.238281 69.9375 34.203125 69.710938 34.140625 "/>
<path style=" stroke:none;fill-rule:nonzero;fill:rgb(13.729858%,12.159729%,12.548828%);fill-opacity:1;" d="M 73.148438 25.75 L 73.148438 24.710938 L 74.054688 24.710938 L 74.054688 25.75 Z M 73.148438 32.074219 L 73.148438 26.738281 L 74.054688 26.738281 L 74.054688 32.074219 L 73.148438 32.074219 "/>
<path style=" stroke:none;fill-rule:nonzero;fill:rgb(13.729858%,12.159729%,12.548828%);fill-opacity:1;" d="M 57.171875 58.414062 L 57.171875 57.363281 L 58.078125 57.363281 L 58.078125 58.414062 Z M 56.027344 66.796875 L 56.199219 66.027344 C 56.378906 66.074219 56.523438 66.097656 56.625 66.097656 C 56.808594 66.097656 56.945312 66.035156 57.035156 65.914062 C 57.128906 65.792969 57.171875 65.484375 57.171875 64.996094 L 57.171875 59.394531 L 58.078125 59.394531 L 58.078125 65.019531 C 58.078125 65.675781 57.992188 66.128906 57.820312 66.390625 C 57.601562 66.722656 57.242188 66.890625 56.738281 66.890625 C 56.492188 66.890625 56.253906 66.859375 56.027344 66.796875 "/>
<path style=" stroke:none;fill-rule:nonzero;fill:rgb(13.729858%,12.159729%,12.548828%);fill-opacity:1;" d="M 59.46875 58.40625 L 59.46875 57.363281 L 60.371094 57.363281 L 60.371094 58.40625 Z M 59.46875 64.726562 L 59.46875 59.394531 L 60.371094 59.394531 L 60.371094 64.726562 L 59.46875 64.726562 "/>
<g clip-path="url(#clip5)" clip-rule="nonzero">
<path style="fill:none;stroke-width:20.0013;stroke-linecap:butt;stroke-linejoin:miter;stroke:rgb(13.729858%,12.159729%,12.548828%);stroke-opacity:1;stroke-miterlimit:22.9256;" d="M 560.567794 1235.921093 L 929.931965 985.098005 " transform="matrix(0.05714,0,0,-0.05714,18.559,95.851)"/>
</g>
<path style=" stroke:none;fill-rule:evenodd;fill:rgb(13.729858%,12.159729%,12.548828%);fill-opacity:1;" d="M 72.976562 36.835938 L 75.78125 42.335938 L 69.636719 41.757812 Z M 72.976562 36.835938 "/>
<g clip-path="url(#clip6)" clip-rule="nonzero">
<path style="fill:none;stroke-width:20.0013;stroke-linecap:butt;stroke-linejoin:miter;stroke:rgb(13.729858%,12.159729%,12.548828%);stroke-opacity:1;stroke-miterlimit:22.9256;" d="M 555.167133 403.19391 L 952.423324 617.85308 " transform="matrix(0.05714,0,0,-0.05714,18.559,95.851)"/>
</g>
<path style=" stroke:none;fill-rule:evenodd;fill:rgb(13.729858%,12.159729%,12.548828%);fill-opacity:1;" d="M 71.148438 58.148438 L 77.335938 58.195312 L 73.984375 63.394531 Z M 71.148438 58.148438 "/>
<path style="fill:none;stroke-width:20.0013;stroke-linecap:butt;stroke-linejoin:miter;stroke:rgb(13.729858%,12.159729%,12.548828%);stroke-opacity:1;stroke-miterlimit:22.9256;" d="M 2634.421487 784.179756 L 3108.175643 784.179756 " transform="matrix(0.05714,0,0,-0.05714,18.559,95.851)"/>
<path style=" stroke:none;fill-rule:evenodd;fill:rgb(13.729858%,12.159729%,12.548828%);fill-opacity:1;" d="M 195.691406 48.054688 L 201.121094 51.042969 L 195.691406 54.03125 Z M 195.691406 48.054688 "/>
<path style="fill:none;stroke-width:20.0013;stroke-linecap:butt;stroke-linejoin:miter;stroke:rgb(13.729858%,12.159729%,12.548828%);stroke-opacity:1;stroke-miterlimit:22.9256;" d="M 2002.749278 947.156655 L 2623.346714 947.156655 L 2623.346714 609.581182 L 2002.749278 609.581182 Z M 2002.749278 947.156655 " transform="matrix(0.05714,0,0,-0.05714,18.559,95.851)"/>
<path style="fill:none;stroke-width:20.0013;stroke-linecap:butt;stroke-linejoin:miter;stroke:rgb(13.729858%,12.159729%,12.548828%);stroke-opacity:1;stroke-miterlimit:22.9256;" d="M 1528.995122 795.391254 L 1932.06215 795.391254 " transform="matrix(0.05714,0,0,-0.05714,18.559,95.851)"/>
<path style=" stroke:none;fill-rule:evenodd;fill:rgb(13.729858%,12.159729%,12.548828%);fill-opacity:1;" d="M 128.484375 47.417969 L 133.914062 50.402344 L 128.484375 53.390625 Z M 128.484375 47.417969 "/>
<path style=" stroke:none;fill-rule:nonzero;fill:rgb(13.729858%,12.159729%,12.548828%);fill-opacity:1;" d="M 90.457031 51.648438 L 87.753906 44.539062 L 89.023438 44.539062 L 90.550781 48.796875 C 90.714844 49.253906 90.867188 49.734375 91.007812 50.230469 C 91.113281 49.855469 91.261719 49.402344 91.457031 48.875 L 93.035156 44.539062 L 94.277344 44.539062 L 91.582031 51.648438 L 90.457031 51.648438 "/>
<path style=" stroke:none;fill-rule:nonzero;fill:rgb(13.729858%,12.159729%,12.548828%);fill-opacity:1;" d="M 146.851562 51.226562 C 146.851562 49.839844 147.292969 48.691406 148.183594 47.777344 C 149.070312 46.863281 150.148438 46.40625 151.410156 46.40625 C 152.675781 46.40625 153.757812 46.863281 154.660156 47.78125 C 155.566406 48.703125 156.019531 49.8125 156.019531 51.109375 C 156.019531 52.449219 155.566406 53.582031 154.667969 54.507812 C 153.769531 55.433594 152.679688 55.898438 151.398438 55.898438 C 150.023438 55.898438 148.890625 55.390625 148.007812 54.378906 C 147.238281 53.484375 146.851562 52.433594 146.851562 51.226562 Z M 148.382812 51.203125 C 148.382812 52.628906 148.675781 53.691406 149.261719 54.390625 C 149.84375 55.09375 150.566406 55.445312 151.417969 55.445312 C 152.289062 55.445312 152.988281 55.121094 153.519531 54.480469 C 154.164062 53.707031 154.484375 52.589844 154.484375 51.132812 C 154.484375 49.699219 154.164062 48.59375 153.519531 47.816406 C 152.996094 47.191406 152.304688 46.878906 151.445312 46.878906 C 150.421875 46.878906 149.628906 47.320312 149.0625 48.199219 C 148.609375 48.90625 148.382812 49.910156 148.382812 51.203125 Z M 153.117188 49.554688 L 153.117188 52.695312 L 152.871094 52.695312 C 152.878906 52.410156 152.839844 52.195312 152.757812 52.046875 C 152.671875 51.902344 152.53125 51.789062 152.339844 51.714844 C 152.242188 51.671875 152.0625 51.652344 151.800781 51.652344 L 151.027344 51.652344 C 150.652344 51.652344 150.390625 51.730469 150.230469 51.886719 C 150.074219 52.042969 149.996094 52.3125 149.992188 52.695312 L 149.738281 52.695312 L 149.738281 49.554688 L 149.992188 49.554688 C 149.992188 49.957031 150.070312 50.242188 150.234375 50.402344 C 150.398438 50.566406 150.660156 50.648438 151.015625 50.648438 L 151.804688 50.648438 C 152.191406 50.648438 152.460938 50.566406 152.621094 50.402344 C 152.785156 50.242188 152.867188 49.957031 152.871094 49.554688 L 153.117188 49.554688 "/>
</g>
</svg>
